<svg width="101" height="43" viewBox="0 0 101 43" fill="none" xmlns="http://www.w3.org/2000/svg">
<path d="M11.6993 31.3541L17.1382 11.1775H22.4894L27.9283 31.3541H25.3551L23.9515 26.383H15.6469L14.2433 31.3541H11.6993ZM16.144 24.1607H23.4544L20.5302 13.3414H19.0682L16.144 24.1607ZM30.9009 31.3541V11.1775H38.4452C39.9072 11.1775 41.1256 11.392 42.1003 11.8208C43.075 12.2497 43.8061 12.9223 44.2934 13.8385C44.8003 14.7547 45.0537 15.9341 45.0537 17.3767C45.0537 18.8583 44.7613 20.1059 44.1765 21.1196C43.5916 22.1138 42.6852 22.8253 41.457 23.2542L45.1999 31.3541H42.3927L38.9423 23.8098H33.4741V31.3541H30.9009ZM33.4741 21.5875H38.5036C39.4589 21.5875 40.2191 21.412 40.7845 21.0611C41.3693 20.6907 41.7787 20.1936 42.0126 19.5698C42.266 18.9265 42.3927 18.2052 42.3927 17.4059C42.3927 16.0608 42.0711 15.0569 41.4278 14.3941C40.7845 13.7313 39.7903 13.3999 38.4452 13.3999H33.4741V21.5875ZM48.9197 31.3541V11.1775H61.4058V13.4291H51.493V20.0084H59.6513V22.2308H51.493V29.1025H61.4058V31.3541H48.9197ZM65.0824 31.3541V11.1775H69.5564L77.0129 28.7516H77.5685V11.1775H80.1418V31.3541H75.7556L68.2113 13.7508H67.6557V31.3541H65.0824ZM83.1751 31.3541L88.614 11.1775H93.9652L99.4041 31.3541H96.8308L95.4272 26.383H87.1227L85.7191 31.3541H83.1751ZM87.6198 24.1607H94.9301L92.006 13.3414H90.5439L87.6198 24.1607Z" fill="#EFF6FF"/>
</svg>
